<svg width="45" height="46" viewBox="0 0 45 46" fill="none" xmlns="http://www.w3.org/2000/svg">
<circle opacity="0.1" cx="22.3857" cy="22.7285" r="22.3857" fill="#00BE9C"/>
<path d="M24.4076 34.1732C27.4559 31.4904 32.8792 26.0094 32.8792 20.9796C32.8792 18.1966 31.7737 15.5276 29.8058 13.5597C27.8379 11.5919 25.1689 10.4863 22.3859 10.4863C19.6029 10.4863 16.9339 11.5919 14.966 13.5597C12.9981 15.5276 11.8926 18.1966 11.8926 20.9796C11.8926 26.0094 17.3141 31.4904 20.3642 34.1732C20.9205 34.6698 21.6402 34.9443 22.3859 34.9443C23.1316 34.9443 23.8513 34.6698 24.4076 34.1732ZM18.8881 20.9796C18.8881 20.052 19.2566 19.1623 19.9126 18.5063C20.5686 17.8504 21.4582 17.4819 22.3859 17.4819C23.3136 17.4819 24.2032 17.8504 24.8592 18.5063C25.5152 19.1623 25.8837 20.052 25.8837 20.9796C25.8837 21.9073 25.5152 22.797 24.8592 23.4529C24.2032 24.1089 23.3136 24.4774 22.3859 24.4774C21.4582 24.4774 20.5686 24.1089 19.9126 23.4529C19.2566 22.797 18.8881 21.9073 18.8881 20.9796Z" fill="#28E1B9"/>
</svg>
